<svg width="92" height="90" viewBox="0 0 92 90" fill="none" xmlns="http://www.w3.org/2000/svg">
<rect width="92" height="90" rx="45" fill="#FF0000"/>
<path fill-rule="evenodd" clip-rule="evenodd" d="M64.121 50.164C63.869 49.388 63.432 48.677 62.824 48.034C62.187 47.362 61.35 46.842 60.312 46.466C59.273 46.093 57.939 45.904 56.295 45.904H54.064C54.33 43.158 55.308 40.821 57 38.889C58.689 36.963 61.031 35.268 64.025 33.814L62.209 31C58.267 32.679 54.894 35.135 52.092 38.379C49.291 41.626 47.896 44.843 47.896 48.034C47.896 51.462 48.705 54.151 50.336 56.092C51.967 58.033 54.303 59 57.34 59C59.267 59 60.941 58.357 62.365 57.072C63.787 55.789 64.5 54.286 64.5 52.572C64.5 51.745 64.375 50.94 64.121 50.164ZM43.725 50.164C43.471 49.388 43.035 48.677 42.426 48.034C41.791 47.362 40.953 46.842 39.914 46.466C38.877 46.093 37.543 45.904 35.898 45.904H33.666C33.933 43.158 34.91 40.821 36.601 38.889C38.291 36.963 40.635 35.268 43.627 33.814L41.812 31C37.869 32.679 34.498 35.135 31.695 38.379C28.894 41.626 27.5 44.843 27.5 48.034C27.5 51.462 28.307 54.151 29.939 56.092C31.568 58.033 33.904 59 36.943 59C38.869 59 40.545 58.357 41.969 57.072C43.391 55.789 44.103 54.286 44.103 52.572C44.103 51.745 43.976 50.94 43.725 50.164Z" fill="white"/>
</svg>
