<?xml version="1.0" ?><svg viewBox="0 0 512 512" xmlns="http://www.w3.org/2000/svg"><title/><g data-name="/ OUTLINE" id="_OUTLINE"><path d="M200,144h32V128H200a32,32,0,1,1,32-32h16a48.00537,48.00537,0,0,0-22.75854-40.80347,31.99765,31.99765,0,1,1,61.45483,17.85059,40.00693,40.00693,0,0,0-13.43555,40.947l15.49414-3.98828A24.00492,24.00492,0,1,1,312,128H280v16h32a40,40,0,1,0-8.02051-79.19141c.0044-.27.02051-.53808.02051-.80859a47.99562,47.99562,0,0,0-93.63428-14.86011A47.99676,47.99676,0,1,0,200,144Z"/><path d="M456,346.7627V200a24.0275,24.0275,0,0,0-24-24H382.62378A24.0384,24.0384,0,0,0,360,160H304v16h56a8.00917,8.00917,0,0,1,8,8v32H280v16H392a8.00917,8.00917,0,0,1,8,8v97.60986A80.18049,80.18049,0,0,0,336.40088,408H155.69482A31.792,31.792,0,0,0,160,392V240a8.00917,8.00917,0,0,1,8-8h64V216H168a24.0275,24.0275,0,0,0-24,24V392a16,16,0,0,1-32,0V184a8.00917,8.00917,0,0,1,8-8h88V160H120a24.0384,24.0384,0,0,0-22.62378,16H80a24.0275,24.0275,0,0,0-24,24V440H16v32a24.0275,24.0275,0,0,0,24,24H416a79.97164,79.97164,0,0,0,40-149.2373ZM392,216h-8V192h48a8.00917,8.00917,0,0,1,8,8V339.68286A79.71411,79.71411,0,0,0,416,336V240A24.0275,24.0275,0,0,0,392,216ZM72,200a8.00917,8.00917,0,0,1,8-8H96V392a32.03667,32.03667,0,0,0,32,32H336.40088a79.42869,79.42869,0,0,0,3.282,16H72ZM40,480a8.00917,8.00917,0,0,1-8-8V456H346.7627a80.59575,80.59575,0,0,0,21.29272,24Zm376,0a64,64,0,1,1,64-64A64.07207,64.07207,0,0,1,416,480Z"/><polygon points="237.657 314.343 226.343 325.657 256 355.313 333.657 277.657 322.343 266.343 256 332.687 237.657 314.343"/><polygon points="293.657 170.343 256 132.687 218.343 170.343 229.657 181.657 248 163.314 248 232 264 232 264 163.314 282.343 181.657 293.657 170.343"/><polygon points="408 412.687 378.343 442.343 389.657 453.657 424 419.313 424 368 408 368 408 412.687"/></g></svg>