<?xml version="1.0" ?><svg height="64" id="svg8" version="1.1" viewBox="0 0 16.933333 16.933334" width="64" xmlns="http://www.w3.org/2000/svg" xmlns:cc="http://creativecommons.org/ns#" xmlns:dc="http://purl.org/dc/elements/1.1/" xmlns:inkscape="http://www.inkscape.org/namespaces/inkscape" xmlns:rdf="http://www.w3.org/1999/02/22-rdf-syntax-ns#" xmlns:sodipodi="http://sodipodi.sourceforge.net/DTD/sodipodi-0.dtd" xmlns:svg="http://www.w3.org/2000/svg"><defs id="defs2"/><g id="layer1"><path d="m 4.2342228,4.7614701 c 0,0.9215739 0.2948278,1.7762089 0.7948011,2.4722008 L 3.1748247,10.44381 c -0.004,0.0067 -0.0102,0.02004 -0.0134,0.02687 -0.3658999,0.166356 -0.6994387,0.341562 -0.9782661,0.595828 -0.2961779,0.270095 -0.4976232,0.606549 -0.5896457,1.056783 l -0.5079834,2.474785 c -0.10141272,0.496224 0.089002,0.962674 0.4346015,1.292427 0.3329289,0.317669 0.7952112,0.513664 1.2702437,0.513664 H 14.142955 c 0.475034,0 0.937313,-0.195994 1.27024,-0.513664 0.345591,-0.329752 0.536024,-0.796203 0.43461,-1.292427 l -0.507993,-2.474785 c -0.09201,-0.450233 -0.293466,-0.786688 -0.589643,-1.056783 -0.278662,-0.25412 -0.614162,-0.430074 -0.979811,-0.596345 -0.0032,-0.007 -0.0064,-0.01431 -0.01033,-0.02119 L 11.904277,7.233667 c 0.499973,-0.695992 0.794805,-1.550627 0.794805,-2.4722008 0,-2.3348708 -1.893221,-4.23229953 -4.2324294,-4.23229753 -2.3392097,2e-6 -4.2324298,1.89743073 -4.2324298,4.23230143 z M 8.4666351,2.3807374 c 1.3081345,0 2.3807959,1.0624708 2.3807959,2.3807327 0,1.3182618 -1.0712003,2.3833167 -2.3807959,2.3833167 -1.3095968,0 -2.3807932,-1.0650549 -2.3807932,-2.3833167 0,-1.3182619 1.0726585,-2.3807327 2.3807932,-2.3807327 z m -6.1212324,0.6015129 0.37879,0.3793049 c 0.2485466,0.2657781 0.6396671,-0.123185 0.3751899,-0.373103 l -0.38087,-0.3808558 c -0.049802,-0.05115 -0.1182932,-0.08005 -0.1896551,-0.080099 -0.2380363,6.5e-5 -0.3548094,0.289532 -0.1834548,0.4547529 z M 14.214757,2.6075984 13.833892,2.9884543 c -0.264484,0.249918 0.126122,0.6388809 0.374663,0.373103 l 0.379316,-0.3793051 c 0.171353,-0.1652209 0.05406,-0.4546878 -0.183974,-0.4547528 -0.07137,5.1e-5 -0.13937,0.028949 -0.18914,0.080099 z M 8.2382191,3.0370282 7.7477969,3.8235433 6.8237974,4.0333492 c -0.1969211,0.04438 -0.2747932,0.2759 -0.1426296,0.424264 L 7.3028511,5.153177 7.222229,6.0693999 C 7.2051078,6.264775 7.4080479,6.4081969 7.5943098,6.331917 L 8.4666311,5.9748331 9.3389521,6.331917 C 9.525215,6.408197 9.7281564,6.264777 9.711032,6.0693999 L 9.6304198,5.153177 10.252104,4.4576132 c 0.132158,-0.148364 0.05428,-0.3798878 -0.142631,-0.424264 L 9.1854742,3.8235433 8.6950521,3.0370282 C 8.6479301,2.9609582 8.5643036,2.9135693 8.4666355,2.9109373 c -0.097674,0.0026 -0.1813022,0.05002 -0.2284164,0.1260909 z M 1.8518796,3.9687543 c -0.3528793,0 -0.3528793,0.5291658 0,0.5291658 h 0.529174 c 0.3528794,0 0.3528794,-0.5291658 0,-0.5291658 z m 12.7003324,0 c -0.352874,0 -0.352874,0.5291658 0,0.5291658 h 0.52918 c 0.352874,0 0.352874,-0.5291658 0,-0.5291658 z M 2.9061076,5.025537 c -0.068702,0.00209 -0.1340436,0.03084 -0.1819149,0.0801 l -0.37879,0.3787881 c -0.265787,0.2485338 0.1231832,0.639647 0.3731099,0.3751708 L 3.0993826,5.478741 C 3.2708972,5.3100321 3.1465839,5.0184401 2.9061076,5.0255391 Z M 13.833891,5.4787392 14.214756,5.8595941 C 14.46468,6.12407 14.853653,5.7329571 14.58787,5.4844232 L 14.208554,5.1056351 c -0.04786,-0.04925 -0.112737,-0.07799 -0.181389,-0.080099 C 13.786681,5.018437 13.66237,5.31003 13.833891,5.4787392 Z M 11.544563,7.6682689 13.04477,10.267593 11.292893,10.09551 c -0.112398,-0.01049 -0.219051,0.05169 -0.265624,0.154513 L 10.292927,11.857677 8.7715332,9.2273466 8.9188149,8.9720658 C 9.9519554,8.8626876 10.871175,8.3820739 11.544563,7.6682689 Z M 5.3897434,7.6687981 C 6.124303,8.4475939 7.1492102,8.9475177 8.2976476,8.9922307 L 6.6403365,11.857689 5.9059973,10.250036 C 5.8593957,10.147213 5.7527729,10.085036 5.64038,10.095523 L 3.8884936,10.267606 Z M 8.4666341,9.7549762 9.2128608,11.048953 8.4666341,11.796711 7.7204062,11.048953 Z m -2.9626877,0.8877998 0.8692232,1.902209 c 0.088602,0.196959 0.3625795,0.210428 0.4702643,0.02326 l 0.602563,-1.043864 0.2072285,0.207222 -0.7317574,4.143416 H 2.7903444 c -0.3263386,0 -0.6594074,-0.133604 -0.9022939,-0.365352 C 1.6571245,15.289315 1.5422614,15.013109 1.602793,14.716939 l 0.5079935,-2.488221 c 0.069402,-0.339771 0.2156057,-0.576057 0.4299513,-0.771529 0.2143558,-0.195472 0.5095536,-0.354071 0.8671531,-0.51573 l 0.268727,-0.121957 z m 5.9258936,0 1.826809,0.176733 0.268725,0.121957 c 0.357604,0.161659 0.652806,0.320258 0.867153,0.51573 0.21435,0.195472 0.360521,0.431758 0.42996,0.77153 l 0.507992,2.488221 c 0.06052,0.29617 -0.05433,0.572375 -0.28526,0.792716 -0.242883,0.231747 -0.575959,0.365351 -0.902295,0.365351 H 10.0118 L 9.2800425,11.731598 9.48727,11.524376 10.089834,12.56824 c 0.108251,0.184615 0.379427,0.171227 0.468717,-0.02326 z M 8.1105736,12.188934 8.279044,12.3574 c 0.051722,0.05199 0.1196541,0.07803 0.1875901,0.07803 0.067932,0 0.1358645,-0.02604 0.18759,-0.07803 l 0.1684695,-0.168466 0.6516571,3.68608 H 7.4589163 Z m 3.0029974,0.776181 c -0.146326,-8.4e-4 -0.265557,0.11723 -0.266141,0.26355 v 1.058333 c -5.62e-4,0.147128 0.119006,0.266462 0.266141,0.265617 h 2.644353 c 0.146933,5.56e-4 0.266184,-0.118692 0.265624,-0.265617 v -1.058333 c -5.84e-4,-0.146117 -0.119499,-0.264103 -0.265624,-0.26355 z" id="path2118" style="color:#000000;font-style:normal;font-variant:normal;font-weight:normal;font-stretch:normal;font-size:medium;line-height:normal;font-family:sans-serif;font-variant-ligatures:normal;font-variant-position:normal;font-variant-caps:normal;font-variant-numeric:normal;font-variant-alternates:normal;font-feature-settings:normal;text-indent:0;text-align:start;text-decoration:none;text-decoration-line:none;text-decoration-style:solid;text-decoration-color:#000000;letter-spacing:normal;word-spacing:normal;text-transform:none;writing-mode:lr-tb;direction:ltr;text-orientation:mixed;dominant-baseline:auto;baseline-shift:baseline;text-anchor:start;white-space:normal;shape-padding:0;clip-rule:nonzero;display:inline;overflow:visible;visibility:visible;opacity:1;isolation:auto;mix-blend-mode:normal;color-interpolation:sRGB;color-interpolation-filters:linearRGB;solid-color:#000000;solid-opacity:1;vector-effect:none;fill:#000000;fill-opacity:1;fill-rule:nonzero;stroke:none;stroke-width:0.52916688;stroke-linecap:round;stroke-linejoin:round;stroke-miterlimit:4;stroke-dasharray:none;stroke-dashoffset:0;stroke-opacity:1;color-rendering:auto;image-rendering:auto;shape-rendering:auto;text-rendering:auto;enable-background:accumulate"/></g></svg>