<svg width="65" height="65" viewBox="0 0 65 65" fill="none" xmlns="http://www.w3.org/2000/svg">
<path d="M62.3 11.7003C62.1 10.9003 61.3 10.5003 60.5 10.5003H54.5V4.50029C54.5 3.70029 54.1 2.90029 53.3 2.70029C52.5 2.30029 51.7 2.50029 51.1 3.10029L43.1 11.1003C42.7 11.5003 42.5 11.9003 42.5 12.5003V19.7003L31.1 31.1003C30.3 31.9003 30.3 33.1003 31.1 33.9003C31.5 34.3003 32.1 34.5003 32.5 34.5003C32.9 34.5003 33.5 34.3003 33.9 33.9003L45.3 22.5003H52.5C53.1 22.5003 53.5 22.3003 53.9 21.9003L61.9 13.9003C62.5 13.3003 62.7 12.5003 62.3 11.7003Z" fill="#FF0000"/>
<path d="M36.7 36.7C35.7 37.9 34.1 38.5 32.5 38.5C30.9 38.5 29.3 37.9 28.3 36.7C25.9 34.3 25.9 30.5 28.3 28.3L33.9 22.7C33.5 22.5 32.9 22.5 32.5 22.5C26.9 22.5 22.5 26.9 22.5 32.5C22.5 38.1 26.9 42.5 32.5 42.5C38.1 42.5 42.5 38.1 42.5 32.5C42.5 32.1 42.5 31.5 42.3 31.1L36.7 36.7Z" fill="#FF0000"/>
<path d="M56.7 24.7C55.7 25.9 54.1 26.5 52.5 26.5H46.9L45.5 27.9C46.1 29.3 46.3 30.9 46.3 32.5C46.3 40.3 40.1 46.5 32.3 46.5C24.5 46.5 18.3 40.3 18.3 32.5C18.3 24.7 24.5 18.5 32.3 18.5C33.9 18.5 35.5 18.9 36.9 19.3L38.5 18.1V12.5C38.5 10.9 39.1 9.3 40.3 8.3L42.3 6.3C39.1 5.1 35.9 4.5 32.5 4.5C17.1 4.5 4.5 17.1 4.5 32.5C4.5 47.9 17.1 60.5 32.5 60.5C47.9 60.5 60.5 47.9 60.5 32.5C60.5 29.1 59.9 25.9 58.7 22.7L56.7 24.7Z" fill="#FF0000"/>
</svg>
