<svg width="64" height="64" viewBox="0 0 64 64" fill="none" xmlns="http://www.w3.org/2000/svg">
<path d="M27.958 17.0293H33.0527C33.5429 17.0293 34.013 17.2241 34.3597 17.5707C34.7063 17.9173 34.9011 18.3875 34.9012 18.8777V34.2751C34.9012 34.5177 34.8534 34.758 34.7605 34.9822C34.6677 35.2064 34.5316 35.41 34.36 35.5816C34.1884 35.7532 33.9847 35.8893 33.7606 35.9821C33.5364 36.075 33.2961 36.1228 33.0535 36.1228H27.958C27.4677 36.1228 26.9975 35.928 26.6508 35.5814C26.3041 35.2347 26.1094 34.7645 26.1094 34.2742V18.8777C26.1094 18.3875 26.3042 17.9173 26.6509 17.5707C26.9976 17.224 27.4677 17.0293 27.958 17.0293Z" fill="#FF0000"/>
<path d="M18.1348 24.293H13.04C12.0191 24.293 11.1914 25.1206 11.1914 26.1416V34.2735C11.1914 35.2944 12.0191 36.1221 13.04 36.1221H18.1348C19.1558 36.1221 19.9834 35.2944 19.9834 34.2735V26.1416C19.9834 25.1206 19.1558 24.293 18.1348 24.293Z" fill="#FF0000"/>
<path d="M53.3788 9.61406L46.9188 3.24006C46.518 2.84812 45.9797 2.62874 45.4191 2.62891C44.8585 2.62907 44.3203 2.84878 43.9198 3.24096L37.4637 9.61596C37.2772 9.79987 37.1496 10.0351 37.0971 10.2917C37.0446 10.5483 37.0696 10.8148 37.169 11.0571C37.2683 11.2995 37.4375 11.5068 37.655 11.6528C37.8726 11.7987 38.1286 11.8767 38.3905 11.8768H39.492C39.8983 11.8772 40.2878 12.0389 40.5751 12.3262C40.8624 12.6135 41.024 13.0031 41.0244 13.4094V34.1668C41.0247 34.6569 41.2196 35.1269 41.5662 35.4736C41.9128 35.8202 42.3828 36.0151 42.873 36.0155H47.9687C48.4587 36.0148 48.9284 35.8198 49.2748 35.4732C49.6212 35.1266 49.8159 34.6568 49.8163 34.1668V13.4068C49.8168 13.0005 49.9784 12.6111 50.2656 12.3238C50.5529 12.0366 50.9424 11.875 51.3486 11.8745H52.4502C52.7121 11.8745 52.9682 11.7966 53.1858 11.6507C53.4034 11.5049 53.5727 11.2977 53.6722 11.0554C53.7717 10.8131 53.797 10.5466 53.7448 10.29C53.6926 10.0333 53.5651 9.7982 53.3788 9.61406Z" fill="#FF0000"/>
<path d="M13.2681 50.238C13.0759 50.49 12.9733 50.7989 12.9766 51.1158C12.98 51.4328 13.089 51.7395 13.2864 51.9875C16.4379 55.9667 30.7029 71.4431 48.6869 51.7136C48.9282 51.4461 49.0601 51.0977 49.0564 50.7375C49.0527 50.3773 48.9137 50.0317 48.6669 49.7693C30.2725 30.4215 16.3354 46.1936 13.2681 50.238ZM31.0169 56.8159C29.7217 56.816 28.4556 56.432 27.3787 55.7125C26.3017 54.993 25.4623 53.9703 24.9666 52.7737C24.4708 51.5772 24.3411 50.2605 24.5937 48.9901C24.8463 47.7198 25.4699 46.553 26.3857 45.6371C27.3015 44.7212 28.4683 44.0975 29.7386 43.8447C31.0089 43.592 32.3256 43.7216 33.5222 44.2173C34.7189 44.7129 35.7416 45.5522 36.4612 46.6291C37.1808 47.706 37.5649 48.9721 37.5649 50.2673C37.565 52.004 36.8751 53.6695 35.6471 54.8976C34.4192 56.1257 32.7536 56.8157 31.0169 56.8159Z" fill="#FF0000"/>
<path d="M31.0187 47.1641C30.4046 47.1641 29.8044 47.3461 29.2938 47.6873C28.7833 48.0284 28.3854 48.5133 28.1504 49.0806C27.9154 49.6479 27.8539 50.2721 27.9737 50.8744C28.0935 51.4766 28.3892 52.0298 28.8234 52.464C29.2576 52.8982 29.8108 53.1938 30.413 53.3136C31.0153 53.4334 31.6395 53.3719 32.2068 53.1369C32.7741 52.9019 33.259 52.504 33.6001 51.9934C33.9412 51.4829 34.1233 50.8826 34.1233 50.2686C34.1233 49.8609 34.043 49.4572 33.8869 49.0805C33.7309 48.7038 33.5022 48.3616 33.2139 48.0733C32.9257 47.785 32.5834 47.5564 32.2067 47.4003C31.8301 47.2443 31.4264 47.164 31.0187 47.1641Z" fill="#FF0000"/>
</svg>
